<svg xmlns="http://www.w3.org/2000/svg" width="256" height="256" viewBox="0 0 256 256" aria-label="Ícone sustentável">
  <defs>
    <linearGradient id="leafGrad" x1="0" x2="1" y1="0" y2="1">
      <stop offset="0" stop-color="#22c55e"/>
      <stop offset="1" stop-color="#0f766e"/>
    </linearGradient>
    <linearGradient id="sunGrad" x1="0" x2="1" y1="0" y2="1">
      <stop offset="0" stop-color="#f59e0b"/>
      <stop offset="1" stop-color="#b45309"/>
    </linearGradient>
  </defs>
  <rect x="16" y="16" width="224" height="224" rx="28" fill="#0f1a16" stroke="#143026" stroke-width="8"/>
  <!-- Sol tecnológico -->
  <circle cx="188" cy="68" r="24" fill="url(#sunGrad)" opacity="0.9" />
  <g stroke="#185a46" stroke-width="6" opacity="0.7">
    <line x1="188" y1="40" x2="188" y2="28" />
    <line x1="216" y1="68" x2="228" y2="68" />
    <line x1="160" y1="68" x2="148" y2="68" />
    <line x1="206" y1="50" x2="216" y2="40" />
    <line x1="170" y1="86" x2="160" y2="96" />
  </g>

  <!-- Folha com circuito -->
  <g transform="translate(40,120)">
    <path d="M16 64 C16 32 56 8 88 0 C84 20 76 36 64 48 C48 64 28 72 16 64 Z" fill="url(#leafGrad)" stroke="#143026" stroke-width="6"/>
    <path d="M28 58 C40 48 52 40 68 32" fill="none" stroke="#a7c3b8" stroke-width="6"/>
    <circle cx="28" cy="58" r="8" fill="#a7c3b8" />
    <circle cx="68" cy="32" r="8" fill="#a7c3b8" />
    <path d="M16 64 C30 80 58 88 76 80" fill="none" stroke="#185a46" stroke-width="6" opacity="0.8"/>
  </g>
</svg>
